<svg width="18" height="16" viewBox="0 0 18 16" fill="none" xmlns="http://www.w3.org/2000/svg">
<path d="M17.0156 0.869529C16.9194 0.647272 16.76 0.458197 16.5572 0.325821C16.3544 0.193445 16.1172 0.123609 15.875 0.124997H2.12498C1.88305 0.125474 1.64646 0.196146 1.4439 0.32844C1.24135 0.460734 1.08154 0.648965 0.98386 0.870297C0.886179 1.09163 0.854826 1.33655 0.893604 1.57535C0.932382 1.81415 1.03963 2.03657 1.20232 2.21562L1.20857 2.22265L6.49998 7.87265V13.875C6.49993 14.1012 6.56127 14.3232 6.67747 14.5173C6.79368 14.7115 6.96038 14.8704 7.15981 14.9772C7.35924 15.084 7.58392 15.1347 7.8099 15.1239C8.03587 15.113 8.25466 15.041 8.44295 14.9156L10.9429 13.2484C11.1143 13.1343 11.2548 12.9796 11.352 12.798C11.4492 12.6165 11.5 12.4137 11.5 12.2078V7.87265L16.7922 2.22265L16.7984 2.21562C16.9628 2.03739 17.0711 1.81468 17.1097 1.57528C17.1484 1.33589 17.1156 1.09043 17.0156 0.869529ZM10.4203 7.20156C10.3122 7.31619 10.2513 7.46743 10.25 7.625V12.2078L7.74998 13.875V7.625C7.75003 7.46629 7.6897 7.31351 7.58123 7.19765L2.12498 1.375H15.875L10.4203 7.20156Z" fill="#FAFAFA"/>
</svg>
