<svg width="20" height="20" viewBox="0 0 20 20" fill="none" xmlns="http://www.w3.org/2000/svg">
<path d="M9.19217 13.3078C9.25028 13.3659 9.29638 13.4348 9.32783 13.5107C9.35928 13.5865 9.37547 13.6679 9.37547 13.75C9.37547 13.8321 9.35928 13.9135 9.32783 13.9893C9.29638 14.0652 9.25028 14.1341 9.19217 14.1922L6.69217 16.6922C6.63412 16.7503 6.56519 16.7964 6.48932 16.8279C6.41345 16.8593 6.33212 16.8755 6.24998 16.8755C6.16785 16.8755 6.08652 16.8593 6.01064 16.8279C5.93477 16.7964 5.86584 16.7503 5.80779 16.6922L3.30779 14.1922C3.24972 14.1341 3.20366 14.0652 3.17224 13.9893C3.14081 13.9134 3.12463 13.8321 3.12463 13.75C3.12463 13.6679 3.14081 13.5866 3.17224 13.5107C3.20366 13.4348 3.24972 13.3659 3.30779 13.3078C3.42507 13.1905 3.58413 13.1247 3.74998 13.1247C3.8321 13.1247 3.91342 13.1408 3.98929 13.1723C4.06516 13.2037 4.1341 13.2497 4.19217 13.3078L5.62498 14.7414V3.75C5.62498 3.58424 5.69083 3.42527 5.80804 3.30806C5.92525 3.19085 6.08422 3.125 6.24998 3.125C6.41574 3.125 6.57471 3.19085 6.69192 3.30806C6.80913 3.42527 6.87498 3.58424 6.87498 3.75V14.7414L8.30779 13.3078C8.36584 13.2497 8.43477 13.2036 8.51064 13.1722C8.58652 13.1407 8.66785 13.1245 8.74998 13.1245C8.83212 13.1245 8.91344 13.1407 8.98932 13.1722C9.06519 13.2036 9.13412 13.2497 9.19217 13.3078ZM16.6922 5.80782L14.1922 3.30782C14.1341 3.24971 14.0652 3.20361 13.9893 3.17215C13.9134 3.1407 13.8321 3.12451 13.75 3.12451C13.6678 3.12451 13.5865 3.1407 13.5106 3.17215C13.4348 3.20361 13.3658 3.24971 13.3078 3.30782L10.8078 5.80782C10.6905 5.92509 10.6246 6.08415 10.6246 6.25C10.6246 6.41586 10.6905 6.57492 10.8078 6.69219C10.9251 6.80947 11.0841 6.87535 11.25 6.87535C11.4158 6.87535 11.5749 6.80947 11.6922 6.69219L13.125 5.2586V16.25C13.125 16.4158 13.1908 16.5747 13.308 16.6919C13.4253 16.8092 13.5842 16.875 13.75 16.875C13.9157 16.875 14.0747 16.8092 14.1919 16.6919C14.3091 16.5747 14.375 16.4158 14.375 16.25V5.2586L15.8078 6.69219C15.9251 6.80947 16.0841 6.87535 16.25 6.87535C16.4158 6.87535 16.5749 6.80947 16.6922 6.69219C16.8094 6.57492 16.8753 6.41586 16.8753 6.25C16.8753 6.08415 16.8094 5.92509 16.6922 5.80782Z" fill="#FAFAFA"/>
</svg>
